<svg width="14" height="14" viewBox="0 0 14 14" fill="none" xmlns="http://www.w3.org/2000/svg">
<path d="M9.81625 8.69128H9.22375L9.01375 8.48878C9.74875 7.63378 10.1913 6.52378 10.1913 5.31628C10.1913 2.62378 8.00875 0.441284 5.31625 0.441284C2.62375 0.441284 0.441254 2.62378 0.441254 5.31628C0.441254 8.00878 2.62375 10.1913 5.31625 10.1913C6.52375 10.1913 7.63375 9.74878 8.48875 9.01378L8.69125 9.22378V9.81628L12.4413 13.5588L13.5588 12.4413L9.81625 8.69128V8.69128ZM5.31625 8.69128C3.44875 8.69128 1.94125 7.18378 1.94125 5.31628C1.94125 3.44878 3.44875 1.94128 5.31625 1.94128C7.18375 1.94128 8.69125 3.44878 8.69125 5.31628C8.69125 7.18378 7.18375 8.69128 5.31625 8.69128Z" fill="white"/>
</svg>
